<?xml version="1.0" encoding="UTF-8"?>
<svg version="1.1" viewBox="0 0 1024 1024" xmlns="http://www.w3.org/2000/svg">
 <defs>
  <linearGradient id="linearGradient1181" x1="406.51" x2="683.15" y1="294.39" y2="943.46" gradientTransform="matrix(.9251 0 0 .92175 2.0506 1.8642)" gradientUnits="userSpaceOnUse">
   <stop stop-color="#ffcc39" offset="0"/>
   <stop stop-color="#ff8902" offset="1"/>
  </linearGradient>
  <linearGradient id="linearGradient1960" x1="257.95" x2="509.44" y1="133.71" y2="195.05" gradientTransform="matrix(.9251 0 0 .92175 2.0506 1.8642)" gradientUnits="userSpaceOnUse">
   <stop stop-color="#5aa02c" offset="0"/>
   <stop stop-color="#3a671c" offset="1"/>
  </linearGradient>
  <linearGradient id="linearGradient1040" x1="703.2" x2="599.08" y1="296.22" y2="578.76" gradientTransform="matrix(.9251 0 0 .92175 36.905 -19.788)" gradientUnits="userSpaceOnUse">
   <stop stop-color="#fff" stop-opacity=".36682" offset="0"/>
   <stop stop-color="#fff" stop-opacity="0" offset="1"/>
  </linearGradient>
 </defs>
 <title>uvaia icon</title>
 <path d="m610.05 243.13a317.33 303.65 0 0 0-174.5 50.155 331.47 284.19 0 0 0-15.584-0.32399 331.47 284.19 0 0 0-331.47 284.19 331.47 284.19 0 0 0 331.47 284.19 331.47 284.19 0 0 0 118.47-18.855 317.33 303.65 0 0 0 71.615 7.9556 317.33 303.65 0 0 0 317.33-303.65 317.33 303.65 0 0 0-317.33-303.65z" fill="url(#linearGradient1181)" stop-color="#000000" stroke-width="1.0526" style="paint-order:stroke fill markers"/>
 <path d="m629.44 268.3v4e-3a269.26 257.65 0 0 0-148.07 42.557 281.26 241.14 0 0 0-13.224-0.27545 281.26 241.14 0 0 0-268.8 171.31 281.26 241.14 0 0 1 201-72.754 281.26 241.14 0 0 1 13.222 0.27544 269.26 257.65 0 0 1 148.07-42.557l-2e-3 -4e-3a269.26 257.65 0 0 1 269.26 257.66 269.26 257.65 0 0 1-17.029 88.515 269.26 257.65 0 0 0 84.838-187.07 269.26 257.65 0 0 0-269.26-257.66z" fill="url(#linearGradient1040)" style="paint-order:stroke fill markers"/>
 <path d="m353.12 23.983a19.098 26.367 0 0 0-16.644 20.804 19.098 26.367 0 0 0 14.771 31.221c9.757 2.8268 16.806 3.6524 20.521 5.6079 4.746 2.4997 9.5294 6.4408 13.704 11.243 23.392 26.906 34.204 55.111 40.566 88.685 0.13916 0.73447 0.24166 1.5088 0.37582 2.2485-137.95-128.62-340.14-115.99-399.03 129.49 121.22 64.69 288.74 3.048 401.48-113.62 3.8782 29.277 4.9068 62.127 6.3077 98.056a19.098 26.367 0 0 0 20.096 24.91 19.098 26.367 0 0 0 18.043-27.747c-1.6683-42.785-2.457-85.175-10.322-126.69-7.866-41.516-23.645-82.005-53.072-115.86-7.2048-8.2871-15.442-15.205-24.534-19.994-11.183-5.8901-20.446-6.2621-26.293-7.9556l-2e-3 -0.0072a19.098 26.367 0 0 0-5.968-0.41046z" fill="url(#linearGradient1960)"/>
 <path d="m486.26 854.14c13.79 14.864 106.86 24.944 116.08 23.457 31.624 8.0158-17.95-34.024-36.046-43.908-26.435-16.094-83.813-5.2807-80.041 20.451z" fill="#ffae39" stroke-width="1.0526"/>
 <path d="m550.15 834.83c-9.0404-0.0595-17.743 4.144-21.947 12.074-11.341-12.343-33.733-8.6794-41.949 7.2355-9.2065 10.001 0.82211 56.957 17.17 69.598 3.5354 1.8124 20.841-26.503 28.893-47.21 13.851 17.765 39.537 40.808 42.412 38.085 11.859-16.525 7.3194-64.237-4.5198-71.34-5.5092-5.669-12.888-8.3951-20.058-8.4423z" fill="#e58700" stroke-width="1.0526"/>
 <path d="m570.21 843.28c-8.7364 17.967-94.906 52.729-104.2 53.793-27.895 16.212 6.9497-37.454 21.316-51.807 20.487-22.555 78.742-27.667 82.882-1.9855z" fill="#ffae39" stroke-width="1.0526"/>
</svg>
