<?xml version="1.0" encoding="UTF-8"?>
<svg version="1.1" viewBox="0 0 1380 256" xmlns="http://www.w3.org/2000/svg" xmlns:xlink="http://www.w3.org/1999/xlink">
 <defs>
  <linearGradient id="linearGradient1181" x1="406.51" x2="683.15" y1="294.39" y2="943.46" gradientTransform="matrix(.9251 0 0 .92175 2.0506 1.8642)" gradientUnits="userSpaceOnUse">
   <stop stop-color="#ffcc39" offset="0"/>
   <stop stop-color="#ff8902" offset="1"/>
  </linearGradient>
  <linearGradient id="linearGradient1960" x1="257.95" x2="509.44" y1="133.71" y2="195.05" gradientTransform="matrix(.9251 0 0 .92175 2.0506 1.8642)" gradientUnits="userSpaceOnUse">
   <stop stop-color="#5aa02c" offset="0"/>
   <stop stop-color="#3a671c" offset="1"/>
  </linearGradient>
  <linearGradient id="linearGradient1040" x1="703.2" x2="599.08" y1="296.22" y2="578.76" gradientTransform="matrix(.9251 0 0 .92175 36.905 -19.788)" gradientUnits="userSpaceOnUse">
   <stop stop-color="#fff" stop-opacity=".36682" offset="0"/>
   <stop stop-color="#fff" stop-opacity="0" offset="1"/>
  </linearGradient>
 </defs>
 <title>uvaia icon&amp;logo</title>
 <g transform="matrix(.28444 0 0 .28444 19.59 -6.7766)">
  <path d="m610.05 243.13a317.33 303.65 0 0 0-174.5 50.155 331.47 284.19 0 0 0-15.584-0.32399 331.47 284.19 0 0 0-331.47 284.19 331.47 284.19 0 0 0 331.47 284.19 331.47 284.19 0 0 0 118.47-18.855 317.33 303.65 0 0 0 71.615 7.9556 317.33 303.65 0 0 0 317.33-303.65 317.33 303.65 0 0 0-317.33-303.65z" fill="url(#linearGradient1181)" stop-color="#000000" stroke-width="3.7006" style="paint-order:stroke fill markers"/>
  <path d="m629.44 268.3v4e-3a269.26 257.65 0 0 0-148.07 42.557 281.26 241.14 0 0 0-13.224-0.27545 281.26 241.14 0 0 0-268.8 171.31 281.26 241.14 0 0 1 201-72.754 281.26 241.14 0 0 1 13.222 0.27544 269.26 257.65 0 0 1 148.07-42.557l-2e-3 -4e-3a269.26 257.65 0 0 1 269.26 257.66 269.26 257.65 0 0 1-17.029 88.515 269.26 257.65 0 0 0 84.838-187.07 269.26 257.65 0 0 0-269.26-257.66z" fill="url(#linearGradient1040)" stroke-width="3.5156" style="paint-order:stroke fill markers"/>
  <path d="m353.12 23.983a19.098 26.367 0 0 0-16.644 20.804 19.098 26.367 0 0 0 14.771 31.221c9.757 2.8268 16.806 3.6524 20.521 5.6079 4.746 2.4997 9.5294 6.4408 13.704 11.243 23.392 26.906 34.204 55.111 40.566 88.685 0.13916 0.73447 0.24166 1.5088 0.37582 2.2485-137.95-128.62-340.14-115.99-399.03 129.49 121.22 64.69 288.74 3.048 401.48-113.62 3.8782 29.277 4.9068 62.127 6.3077 98.056a19.098 26.367 0 0 0 20.096 24.91 19.098 26.367 0 0 0 18.043-27.747c-1.6683-42.785-2.457-85.175-10.322-126.69-7.866-41.516-23.645-82.005-53.072-115.86-7.2048-8.2871-15.442-15.205-24.534-19.994-11.183-5.8901-20.446-6.2621-26.293-7.9556l-2e-3 -0.0072a19.098 26.367 0 0 0-5.968-0.41046z" fill="url(#linearGradient1960)" stroke-width="3.5156"/>
  <path d="m486.26 854.14c13.79 14.864 106.86 24.944 116.08 23.457 31.624 8.0158-17.95-34.024-36.046-43.908-26.435-16.094-83.813-5.2807-80.041 20.451z" fill="#ffae39" stroke-width="3.7006"/>
  <path d="m550.15 834.83c-9.0404-0.0595-17.743 4.144-21.947 12.074-11.341-12.343-33.733-8.6794-41.949 7.2355-9.2065 10.001 0.82211 56.957 17.17 69.598 3.5354 1.8124 20.841-26.503 28.893-47.21 13.851 17.765 39.537 40.808 42.412 38.085 11.859-16.525 7.3194-64.237-4.5198-71.34-5.5092-5.669-12.888-8.3951-20.058-8.4423z" fill="#e58700" stroke-width="3.7006"/>
  <path d="m570.21 843.28c-8.7364 17.967-94.906 52.729-104.2 53.793-27.895 16.212 6.9497-37.454 21.316-51.807 20.487-22.555 78.742-27.667 82.882-1.9855z" fill="#ffae39" stroke-width="3.7006"/>
 </g>
 <g transform="translate(1748.4 558.83)">
  <path d="m-991.45-491.42c-17.307 0-25.96 19.113-25.96 54.791 0 5.0969 0 8.9221 0.9629 17.842-5.7689 19.114-25.96 48.421-51.921 70.083-17.307 15.291-37.498 25.483-49.036 25.483-6.7304 0-11.537-3.823-11.537-12.743 0-5.0969 4.8073-15.291 13.461-31.855l68.264-117.23h-41.343c-10.577 17.839-16.346 26.761-38.46 54.794-5.2783 6.9952-8.9719 11.847-12.453 16.307-37.147 46.893-85.131 86.905-103.89 86.905-6.7303 0-9.6149-3.8219-9.6149-10.193s2.884-11.469 10.576-25.485l68.264-122.33h-40.382l-41.343 72.633c-26.921 48.421-66.342 89.196-86.533 89.196-8.6533 0-12.5-5.0972-12.5-12.743 0-5.0969 3.8464-14.016 12.5-28.032l66.343-121.05h-41.345c-10.577 17.839-16.344 26.761-38.458 54.794-13.461 17.839-17.308 22.937-30.769 38.228l4.8085 7.6435 15.383-11.466c-20.192 33.13-25.958 44.599-25.958 61.163 0 21.663 11.536 31.855 32.688 31.855s41.345-10.195 70.19-38.228c-0.9615 5.0969-1.9238 8.9199-1.9238 12.743 0 16.566 8.6536 25.485 25.96 25.485 39.279 0 88.316-46.632 115.65-76.417-10.224 16.148-14.689 26.876-14.689 43.285 0 22.936 13.462 33.131 35.575 33.131 32.69 0 81.724-33.131 118.26-77.729 6.7303 16.566 14.424 22.939 27.884 22.939 9.1345 0 16.681-2.5401 25.993-10.32-3.1132 10.215-4.8417 19.867-4.8417 28.159 0 22.936 10.576 36.952 26.921 36.952 19.23 0 37.499-10.195 67.306-38.228-2.8844 8.9196-4.8085 12.742-4.8085 17.839 0 11.468 9.6149 20.389 23.076 20.389 45.18 0 97.04-50.904 123.25-80.3l-4.9882 10.216c-8.6534 16.566-13.461 26.759-13.461 38.228 0 20.388 10.576 31.855 27.882 31.855 31.95 0 70.796-34.193 99.982-64.964-3.0844 10.16-4.7948 19.76-4.7948 28.012 0 22.936 10.576 36.952 26.921 36.952 19.23 0 37.499-10.195 67.306-38.228-2.8844 8.9196-4.8085 12.742-4.8085 17.839 0 11.468 9.6149 20.389 23.076 20.389 63.458 0 140.38-100.66 140.38-100.66l-7.6931-14.016c-37.498 48.421-88.457 89.196-108.65 89.196-5.7689 0-9.615-3.8226-9.615-8.9196 0-6.3712 2.886-11.469 10.578-25.485l67.304-122.33h-29.806l-25.96 34.405c0.96149-8.9196 0.96091-12.74 0.96091-16.563 0-15.291-6.7296-22.939-21.152-22.939-23.075 0-66.343 28.036-92.303 62.439-2.6476 3.3563-5.178 6.8264-7.5936 10.369l-0.0976-0.17602c-35.575 45.872-85.572 89.196-102.88 89.196-6.7304 0-10.576-6.3696-10.576-11.466 0-3.8227 1.9226-10.196 3.8456-14.019l74.996-131.25h-40.384c-14.423 22.936-21.153 31.858-39.421 54.794-10.701 13.295-14.976 19.257-21.064 26.761-35.809 42.007-78.994 75.178-97.197 75.178-5.7689 0-9.6131-3.8226-9.6131-8.9196 0-6.3712 2.884-11.469 10.576-25.485l67.304-122.33h-29.806l-25.96 34.405c0.96149-8.9196 0.96092-12.74 0.96092-16.563 0-15.291-6.7296-22.939-21.152-22.939-23.075 0-66.343 28.036-92.303 62.439-2.6483 3.3571-5.1775 6.828-7.5936 10.372l-0.0977-0.17861c-23.076 31.856-38.459 42.049-47.112 42.049-8.6533 0-15.385-8.9187-15.385-19.113 0-6.3712 1.9238-14.016 8.6541-26.758 11.538-24.211 12.498-29.308 12.498-43.324 0-16.566-5.7685-26.758-17.307-26.758zm155.76 20.389c6.7304 0 10.576 6.37 10.576 15.289 0 15.291-11.537 42.05-30.767 73.907-18.269 30.582-41.344 50.971-55.767 50.971-6.7304 0-10.576-3.823-10.576-12.743 0-19.114 19.231-63.712 42.306-91.746 15.384-20.388 33.651-35.678 44.228-35.678zm340.36 0c6.7305 0 10.576 6.37 10.576 15.289 0 15.291-11.537 42.05-30.767 73.907-18.269 30.582-41.344 50.971-55.767 50.971-6.7304 0-10.576-3.823-10.576-12.743 0-19.114 19.231-63.712 42.306-91.746 15.384-20.388 33.651-35.678 44.228-35.678z" fill="#1a1a1a"/>
  <ellipse cx="-630.5" cy="-539.52" rx="21.923" ry="19.314" fill="#dfae3a" stop-color="#000000" style="paint-order:stroke fill markers"/>
 </g>
</svg>
