<?xml version="1.0" encoding="UTF-8"?>
<svg version="1.1" viewBox="0 0 1024 256" xmlns="http://www.w3.org/2000/svg">
 <title>uvaia logo</title>
 <path d="m400.95 67.411c-17.307 0-25.961 19.113-25.961 54.792 0 5.097 1e-3 8.9223 0.96289 17.842-5.769 19.115-25.961 48.422-51.922 70.085-17.307 15.291-37.499 25.484-49.037 25.484-6.7305 0-11.537-3.823-11.537-12.743 0-5.097 4.8074-15.291 13.461-31.856l68.266-117.23h-41.344c-10.577 17.84-16.346 26.761-38.461 54.795-5.2784 6.9954-8.9721 11.847-12.453 16.308-37.148 46.894-85.133 86.907-103.89 86.907-6.7305 0-9.6152-3.822-9.6152-10.193s2.8841-11.469 10.576-25.485l68.266-122.33h-40.383l-41.344 72.635c-26.922 48.422-66.344 89.198-86.535 89.198-8.6535 0-12.5-5.0973-12.5-12.743 0-5.097 3.8465-14.016 12.5-28.032l66.344-121.06h-41.346c-10.577 17.84-16.344 26.761-38.459 54.795-13.461 17.84-17.308 22.938-30.77 38.229l4.8086 7.6437 15.383-11.467c-20.192 33.131-25.959 44.6-25.959 61.164 0 21.663 11.536 31.856 32.689 31.856s41.346-10.195 70.191-38.229c-0.9615 5.097-1.9238 8.9201-1.9238 12.743 0 16.566 8.6538 25.485 25.961 25.485 39.28 0 88.318-46.633 115.65-76.418-10.224 16.149-14.689 26.877-14.689 43.286 0 22.937 13.462 33.132 35.576 33.132 32.691 0 81.726-33.132 118.26-77.73 6.7305 16.566 14.424 22.939 27.885 22.939 9.1347 0 16.681-2.5402 25.994-10.32-3.1133 10.215-4.8418 19.867-4.8418 28.16 0 22.937 10.576 36.953 26.922 36.953 19.23 0 37.5-10.195 67.307-38.229-2.8845 8.9198-4.8086 12.742-4.8086 17.84 0 11.468 9.6151 20.389 23.076 20.389 45.181 0 97.042-50.905 123.25-80.301l-4.9883 10.217c-8.6536 16.566-13.461 26.76-13.461 38.229 0 20.388 10.576 31.856 27.883 31.856 31.951 0 70.798-34.194 99.984-64.965-3.0845 10.16-4.7949 19.76-4.7949 28.012 0 22.937 10.576 36.953 26.922 36.953 19.23 0 37.5-10.195 67.307-38.229-2.8845 8.9198-4.8086 12.742-4.8086 17.84 0 11.468 9.6151 20.389 23.076 20.389 63.459 0 140.38-100.67 140.38-100.67l-7.6933-14.016c-37.499 48.422-88.459 89.198-108.65 89.198-5.769 0-9.6152-3.8226-9.6152-8.9198 0-6.3713 2.8861-11.469 10.578-25.485l67.305-122.33h-29.807l-25.961 34.406c0.96151-8.9198 0.96093-12.741 0.96093-16.563 0-15.291-6.7298-22.939-21.152-22.939-23.076 0-66.344 28.036-92.305 62.441-2.6477 3.3564-5.1781 6.8265-7.5938 10.369l-0.0976-0.17602c-35.576 45.873-85.574 89.198-102.88 89.198-6.7305 0-10.576-6.3697-10.576-11.467 0-3.8228 1.9227-10.196 3.8457-14.019l74.998-131.25h-40.385c-14.423 22.937-21.153 31.858-39.422 54.795-10.701 13.295-14.976 19.258-21.064 26.761-35.81 42.007-78.996 75.179-97.199 75.179-5.769 0-9.6133-3.8226-9.6133-8.9198 0-6.3713 2.8841-11.469 10.576-25.485l67.305-122.33h-29.807l-25.961 34.406c0.96151-8.9198 0.96094-12.741 0.96094-16.563 0-15.291-6.7298-22.939-21.152-22.939-23.076 0-66.344 28.036-92.305 62.441-2.6484 3.3572-5.1776 6.8281-7.5938 10.372l-0.0977-0.17861c-23.076 31.857-38.46 42.05-47.113 42.05-8.6535 0-15.385-8.9189-15.385-19.113 0-6.3713 1.9238-14.016 8.6543-26.759 11.538-24.212 12.498-29.309 12.498-43.325 0-16.566-5.7686-26.759-17.307-26.759zm155.76 20.389c6.7305 0 10.576 6.3701 10.576 15.29 0 15.291-11.537 42.051-30.768 73.908-18.269 30.582-41.345 50.972-55.768 50.972-6.7305 0-10.576-3.823-10.576-12.743 0-19.115 19.231-63.713 42.307-91.748 15.384-20.388 33.652-35.679 44.229-35.679zm340.37 0c6.7306 0 10.576 6.3701 10.576 15.29 0 15.291-11.537 42.051-30.768 73.908-18.269 30.582-41.345 50.972-55.768 50.972-6.7305 0-10.576-3.823-10.576-12.743 0-19.115 19.231-63.713 42.307-91.748 15.384-20.388 33.652-35.679 44.229-35.679z" fill="#1a1a1a"/>
 <ellipse cx="761.91" cy="19.314" rx="21.923" ry="19.314" fill="#dfae3a" stop-color="#000000" style="paint-order:stroke fill markers"/>
</svg>
